<svg xmlns="http://www.w3.org/2000/svg" xmlns:xlink="http://www.w3.org/1999/xlink" width="2000" zoomAndPan="magnify" viewBox="0 0 1500 1499.999933" height="2000" preserveAspectRatio="xMidYMid meet" version="1.0"><defs><clipPath id="f594ef6a5a"><path d="M 638 389.304688 L 998 389.304688 L 998 1011 L 638 1011 Z M 638 389.304688 " clip-rule="nonzero"/></clipPath><clipPath id="9bcfd91762"><path d="M 750 389.304688 L 998 389.304688 L 998 805 L 750 805 Z M 750 389.304688 " clip-rule="nonzero"/></clipPath></defs><path fill="#0d62ad" d="M 521.417969 693.804688 C 493.699219 742.769531 485.054688 795.640625 499.34375 853.210938 C 532.960938 988.625 683.425781 1110.804688 819.132812 1043.449219 C 894.011719 1006.285156 923.640625 915.265625 872.167969 844.777344 C 843.957031 806.132812 798.835938 773.625 749.464844 742.664062 C 685.960938 703.996094 593.488281 642.265625 603.035156 557.164062 C 566.324219 597.054688 541.371094 642.972656 570.421875 694.125 C 592.714844 733.371094 634.59375 769.332031 687.527344 803.472656 C 710.203125 820.207031 732.238281 837.609375 748.242188 860.785156 C 793.320312 926.058594 741.59375 970.238281 675.402344 962.726562 C 609.816406 955.28125 577.824219 923.246094 563.515625 878.316406 C 589.023438 898.957031 615.414062 918.054688 646.546875 926.207031 C 697.824219 939.640625 711.449219 907.863281 696.707031 872.820312 C 688.921875 854.324219 674.546875 836.839844 657.144531 822.871094 C 603.078125 779.441406 569.738281 750.902344 521.417969 693.804688 " fill-opacity="1" fill-rule="evenodd"/><path fill="#034e8f" d="M 848.652344 1024.179688 C 900.875 980.410156 916.214844 905.070312 872.191406 844.777344 C 843.976562 806.132812 798.855469 773.625 749.488281 742.664062 C 685.980469 703.996094 593.507812 642.265625 603.054688 557.164062 C 581.324219 619.691406 591.8125 662.113281 638.179688 706.699219 C 695.441406 761.757812 771.886719 801.90625 823.488281 861.277344 C 860.539062 903.957031 880.042969 955.21875 848.652344 1024.179688 " fill-opacity="1" fill-rule="evenodd"/><path fill="#034e8f" d="M 702.199219 900.542969 C 702.738281 892.15625 700.828125 882.605469 696.6875 872.777344 C 688.898438 854.28125 674.523438 836.796875 657.125 822.828125 C 603.054688 779.417969 569.714844 750.878906 521.398438 693.804688 C 569.585938 813.644531 664.441406 815.230469 702.199219 900.542969 " fill-opacity="1" fill-rule="evenodd"/><g clip-path="url(#f594ef6a5a)"><path fill="#0098da" d="M 750.347656 389.304688 C 688.640625 436.683594 612.089844 501.804688 648.175781 578.558594 C 678.042969 642.070312 773.347656 701.164062 827.585938 745.085938 C 925.097656 824.027344 999.441406 887.199219 901.21875 1010.941406 C 981.996094 934.339844 1014.972656 845.980469 937.222656 753.949219 C 915.722656 728.5 890.125 704.746094 860.796875 682.519531 C 805.398438 640.546875 725.328125 593.964844 724.816406 515.472656 C 772.253906 588.492188 814.066406 607.351562 878.347656 654.085938 C 938.035156 697.472656 977.386719 747.660156 997.402344 804.265625 C 992.144531 739.421875 967.386719 681.058594 927.886719 627.628906 C 898.988281 588.535156 862.363281 552.292969 827.863281 514.851562 C 789.074219 472.707031 767.832031 446.335938 750.347656 389.304688 " fill-opacity="1" fill-rule="evenodd"/></g><g clip-path="url(#9bcfd91762)"><path fill="#007fb5" d="M 986.78125 778.601562 C 990.773438 787.015625 994.3125 795.554688 997.402344 804.265625 C 992.144531 739.421875 967.386719 681.058594 927.886719 627.628906 C 898.988281 588.535156 862.363281 552.292969 827.863281 514.851562 C 789.050781 472.730469 767.832031 446.359375 750.347656 389.324219 C 750.648438 430.332031 759.765625 466.269531 778.796875 502.339844 C 801.753906 545.8125 831.273438 567.679688 870.324219 604.21875 C 889.117188 621.816406 906.691406 640.570312 922.867188 660.675781 C 949.085938 693.203125 979.078125 737.835938 986.78125 778.601562 Z M 986.78125 778.601562 " fill-opacity="1" fill-rule="evenodd"/></g><path fill="#007fb5" d="M 652.167969 489.765625 C 637.597656 517.082031 633.242188 546.820312 648.15625 578.558594 C 678.019531 642.070312 773.324219 701.164062 827.5625 745.085938 C 855.433594 767.636719 881.394531 788.925781 901.992188 810.683594 C 842.21875 727.835938 743.953125 680.609375 688.554688 602.03125 C 664.996094 568.601562 650.730469 531.222656 652.167969 489.765625 " fill-opacity="1" fill-rule="evenodd"/></svg>